<mxfile host="app.diagrams.net" modified="2024-02-07T11:59:37.164Z" agent="Mozilla/5.0 (Windows NT 10.0; Win64; x64) AppleWebKit/537.36 (KHTML, like Gecko) Chrome/120.0.0.0 YaBrowser/24.1.0.0 Safari/537.36" etag="KjJVDhp9NjyT6mF1xcE6" version="23.1.1" type="github">
  <diagram name="Страница — 1" id="0iTnj-BsS2j_chY-5PiK">
    <mxGraphModel dx="788" dy="2130" grid="0" gridSize="10" guides="1" tooltips="1" connect="1" arrows="1" fold="1" page="1" pageScale="1" pageWidth="1200" pageHeight="1600" math="0" shadow="0">
      <root>
        <mxCell id="0" />
        <mxCell id="1" parent="0" />
        <mxCell id="aRAYRiQgfo4Hvzv392GO-1" value="" style="rounded=1;whiteSpace=wrap;html=1;shadow=0;glass=0;gradientColor=none;" vertex="1" parent="1">
          <mxGeometry x="109" y="48" width="120" height="234" as="geometry" />
        </mxCell>
        <mxCell id="aRAYRiQgfo4Hvzv392GO-2" value="Text" style="text;html=1;strokeColor=none;fillColor=none;align=center;verticalAlign=middle;whiteSpace=wrap;rounded=0;" vertex="1" parent="1">
          <mxGeometry x="44" y="-22" width="60" height="30" as="geometry" />
        </mxCell>
      </root>
    </mxGraphModel>
  </diagram>
</mxfile>
